<?xml version="1.0" encoding="UTF-8" standalone="no"?><!DOCTYPE svg PUBLIC "-//W3C//DTD SVG 1.1//EN" "http://www.w3.org/Graphics/SVG/1.1/DTD/svg11.dtd"><svg width="100%" height="100%" viewBox="0 0 350 500" version="1.1" xmlns="http://www.w3.org/2000/svg" xmlns:xlink="http://www.w3.org/1999/xlink" xml:space="preserve" xmlns:serif="http://www.serif.com/" style="fill-rule:evenodd;clip-rule:evenodd;stroke-linecap:round;stroke-linejoin:round;stroke-miterlimit:1.5;"><g><path id="Kopf" d="M235.465,399.003c3.45,-5.659 -0.679,-13.38 0,-17.968c23.269,-38.023 33.561,-123.41 33.561,-123.41l7.914,-49.204c0,0 44.535,-124.529 0,-202.476c-5.821,3.573 -28.598,43.67 -49.247,115.353c-5.393,7.942 -6.976,-6.782 -10.119,-38.806c-5.224,20.203 -6.877,35.298 -11.917,43.403c-0.428,-29.484 -3.243,-52.827 -7.973,-71.238c0.708,25.942 -2.79,47.456 -10.494,64.543c-7.354,-26.138 -6.206,-56.698 0,-89.888c-11.411,27.819 -18.837,57.303 -18.837,89.888c-8.738,-16.736 -12.847,-38.663 -13.434,-64.543c-5.973,18.691 -9.65,38.691 -8.279,61.569c-8.18,-10.816 -11.794,-27.523 -12.218,-48.346c-4.042,-1.845 -12.945,57.929 -11.814,54.237l-0.301,-0.819c-20.649,-71.683 -43.426,-111.78 -49.247,-115.353c-44.535,77.947 0,202.476 0,202.476l8.902,49.204c0,0 10.293,85.387 33.561,123.41c0.679,4.588 -3.45,12.309 0,17.968" style="fill:#b0b0b0;stroke:#000;stroke-width:5.24px;"/><g id="Maul"><path id="Maul1" serif:id="Maul" d="M101.579,332.179c0.38,0 -64.434,66.299 -14.665,97.821c3.508,7.74 10.456,25.791 14.665,33.472c3.826,5.094 24.352,20.595 44.742,19.835c20.39,-0.76 47.668,0 47.668,0l9.69,-0.001c20.39,0.768 40.916,-14.896 44.742,-20.044c4.209,-7.761 11.157,-26.002 14.665,-33.823c49.769,-31.855 -15.045,-98.852 -14.665,-98.852" style="fill:#fff;stroke:#000;stroke-width:5.24px;"/><path id="Maul2" serif:id="Maul" d="M248.421,330.587c-12.175,-0.779 -43.148,-4.424 -63.803,-23.469c-8.639,-7.965 -16.016,-9.068 -25.005,0c-23.64,23.846 -58.034,25.061 -58.034,25.061c0.38,0 -64.434,66.299 -14.665,97.821c3.508,7.74 10.456,25.791 14.665,33.472c3.826,5.094 24.352,20.595 44.742,19.835c20.39,-0.76 47.668,0 47.668,0l9.69,-0.001c20.39,0.768 40.916,-14.896 44.742,-20.044c4.209,-7.761 11.157,-26.002 14.665,-33.823c49.769,-31.855 -14.286,-98.828 -14.665,-98.852Z" style="fill:#fff;"/><path d="M172.011,295.486l0.138,0.002l0.138,0.003l0.138,0.004l0.139,0.005l0.136,0.007l0.138,0.007l0.138,0.009l0.137,0.009l0.137,0.011l0.137,0.012l0.137,0.013l0.137,0.014l0.136,0.016l0.136,0.016l0.137,0.017l0.136,0.019l0.136,0.02l0.135,0.02l0.145,0.023l0.26,0.045l0.269,0.051l0.268,0.054l0.266,0.059l0.266,0.063l0.265,0.066l0.264,0.071l0.262,0.074l0.261,0.078l0.26,0.082l0.259,0.085l0.258,0.089l0.256,0.092l0.255,0.096l0.254,0.099l0.253,0.102l0.252,0.106l0.25,0.108l0.249,0.112l0.248,0.115l0.247,0.118l0.246,0.122l0.245,0.124l0.243,0.127l0.243,0.13l0.241,0.132l0.241,0.136l0.239,0.138l0.239,0.141l0.237,0.144l0.237,0.146l0.236,0.149l0.235,0.151l0.234,0.155l0.233,0.156l0.233,0.159l0.232,0.162l0.231,0.164l0.231,0.166l0.23,0.169l0.229,0.172l0.229,0.173l0.228,0.176l0.228,0.179l0.227,0.18l0.227,0.183l0.227,0.186l0.226,0.187l0.225,0.19l0.226,0.192l0.225,0.194l0.225,0.197l0.224,0.199l0.225,0.201l0.224,0.203l0.214,0.196l0.233,0.214l0.224,0.203l0.224,0.202l0.226,0.201l0.227,0.2l0.227,0.198l0.229,0.197l0.229,0.196l0.23,0.195l0.231,0.194l0.232,0.192l0.233,0.191l0.233,0.19l0.235,0.189l0.235,0.188l0.236,0.186l0.237,0.186l0.237,0.184l0.239,0.183l0.239,0.182l0.24,0.181l0.241,0.179l0.241,0.179l0.243,0.177l0.242,0.176l0.244,0.175l0.245,0.174l0.245,0.173l0.246,0.171l0.246,0.171l0.247,0.169l0.248,0.168l0.249,0.167l0.249,0.166l0.25,0.165l0.25,0.164l0.251,0.163l0.252,0.162l0.252,0.16l0.253,0.159l0.254,0.159l0.254,0.157l0.254,0.156l0.255,0.155l0.256,0.154l0.257,0.153l0.256,0.152l0.257,0.151l0.258,0.15l0.259,0.148l0.259,0.148l0.259,0.146l0.26,0.146l0.26,0.144l0.261,0.144l0.261,0.142l0.261,0.142l0.262,0.14l0.262,0.139l0.263,0.138l0.264,0.138l0.263,0.136l0.264,0.135l0.264,0.134l0.265,0.133l0.265,0.133l0.265,0.131l0.266,0.13l0.266,0.129l0.266,0.128l0.266,0.127l0.267,0.126l0.267,0.126l0.268,0.124l0.267,0.123l0.268,0.122l0.268,0.122l0.268,0.12l0.269,0.119l0.268,0.119l0.269,0.117l0.269,0.117l0.269,0.115l0.27,0.115l0.269,0.113l0.27,0.113l0.269,0.112l0.27,0.111l0.27,0.109l0.27,0.109l0.27,0.108l0.27,0.107l0.271,0.107l0.27,0.105l0.27,0.104l0.271,0.104l0.27,0.102l0.27,0.102l0.271,0.101l0.27,0.1l0.27,0.099l0.271,0.098l0.27,0.097l0.27,0.096l0.27,0.096l0.27,0.094l0.27,0.094l0.27,0.093l0.27,0.092l0.27,0.091l0.269,0.09l0.27,0.09l0.269,0.088l0.269,0.088l0.269,0.087l0.268,0.086l0.269,0.085l0.268,0.085l0.268,0.083l0.265,0.082l0.538,0.164l0.534,0.16l0.533,0.157l0.532,0.153l0.53,0.15l0.529,0.148l0.528,0.144l0.526,0.141l0.524,0.138l0.522,0.135l0.521,0.132l0.519,0.13l0.517,0.126l0.515,0.123l0.513,0.121l0.51,0.118l0.509,0.115l0.505,0.112l0.504,0.11l0.501,0.107l0.498,0.104l0.495,0.102l0.492,0.099l0.49,0.097l0.487,0.094l0.483,0.091l0.481,0.089l0.477,0.087l0.473,0.085l0.471,0.082l0.466,0.079l0.464,0.078l0.459,0.075l0.456,0.073l0.452,0.071l0.448,0.069l0.444,0.066l0.439,0.065l0.436,0.062l0.431,0.061l0.427,0.058l0.423,0.057l0.418,0.054l0.413,0.053l0.409,0.051l0.404,0.049l0.399,0.047l0.394,0.046l0.389,0.044l0.384,0.042l0.379,0.041l0.373,0.039l0.368,0.037l0.363,0.036l0.357,0.034l0.351,0.033l0.346,0.032l0.34,0.03l0.334,0.029l0.328,0.027l0.322,0.026l0.316,0.025l0.31,0.024l0.3,0.022l0.591,0.042l0.573,0.038l0.597,0.074l0.585,0.142l0.003,0.001l0.517,0.188l0.495,0.241l0.005,0.003l0.523,0.332l0.148,0.107l0.215,0.176l0.143,0.127l0.158,0.146l0.15,0.145l0.149,0.149l0.16,0.162l0.175,0.179l0.191,0.198l0.207,0.218l0.225,0.239l0.242,0.259l0.258,0.28l0.276,0.3l0.291,0.321l0.308,0.34l0.323,0.361l0.338,0.381l0.353,0.4l0.367,0.42l0.38,0.439l0.394,0.457l0.406,0.476l0.419,0.494l0.43,0.513l0.442,0.53l0.45,0.546l0.232,0.282l0.233,0.285l0.235,0.289l0.237,0.292l0.24,0.298l0.242,0.301l0.244,0.306l0.246,0.309l0.248,0.314l0.251,0.317l0.252,0.322l0.254,0.325l0.256,0.329l0.257,0.334l0.26,0.337l0.261,0.341l0.262,0.344l0.265,0.349l0.265,0.352l0.267,0.355l0.268,0.36l0.269,0.363l0.271,0.366l0.272,0.37l0.273,0.374l0.273,0.377l0.275,0.38l0.276,0.384l0.276,0.387l0.277,0.39l0.278,0.394l0.279,0.397l0.279,0.4l0.279,0.404l0.28,0.406l0.281,0.41l0.28,0.413l0.281,0.416l0.281,0.419l0.281,0.422l0.282,0.424l0.281,0.428l0.281,0.431l0.281,0.434l0.281,0.436l0.28,0.439l0.281,0.442l0.28,0.445l0.279,0.447l0.279,0.45l0.278,0.453l0.278,0.455l0.277,0.458l0.276,0.461l0.275,0.462l0.275,0.466l0.273,0.468l0.273,0.47l0.271,0.473l0.27,0.475l0.269,0.477l0.268,0.48l0.266,0.482l0.265,0.484l0.264,0.486l0.262,0.489l0.26,0.49l0.259,0.493l0.257,0.495l0.255,0.497l0.253,0.499l0.252,0.501l0.249,0.503l0.248,0.505l0.245,0.506l0.243,0.509l0.24,0.51l0.239,0.513l0.236,0.514l0.234,0.516l0.231,0.517l0.228,0.52l0.225,0.517l0.113,0.265l0.111,0.261l0.111,0.262l0.11,0.263l0.109,0.262l0.108,0.263l0.108,0.264l0.106,0.264l0.107,0.264l0.105,0.265l0.105,0.265l0.104,0.265l0.103,0.266l0.102,0.266l0.101,0.267l0.101,0.267l0.1,0.267l0.099,0.268l0.098,0.268l0.098,0.268l0.096,0.269l0.096,0.269l0.095,0.269l0.094,0.27l0.092,0.27l0.093,0.27l0.091,0.271l0.09,0.271l0.09,0.271l0.088,0.272l0.087,0.272l0.087,0.272l0.086,0.273l0.084,0.273l0.084,0.273l0.083,0.274l0.081,0.273l0.081,0.274l0.08,0.275l0.078,0.274l0.078,0.275l0.076,0.276l0.076,0.275l0.074,0.276l0.074,0.276l0.072,0.276l0.071,0.277l0.07,0.277l0.069,0.277l0.068,0.277l0.067,0.277l0.066,0.278l0.064,0.278l0.063,0.279l0.063,0.278l0.061,0.279l0.059,0.279l0.059,0.279l0.057,0.28l0.057,0.279l0.055,0.28l0.053,0.28l0.053,0.28l0.051,0.281l0.05,0.281l0.049,0.281l0.047,0.281l0.046,0.281l0.045,0.281l0.043,0.282l0.042,0.282l0.041,0.282l0.04,0.282l0.038,0.282l0.037,0.283l0.035,0.283l0.034,0.282l0.032,0.284l0.032,0.283l0.029,0.283l0.029,0.283l0.026,0.284l0.026,0.284l0.024,0.283l0.022,0.284l0.021,0.284l0.02,0.284l0.018,0.285l0.016,0.284l0.015,0.285l0.013,0.284l0.012,0.285l0.01,0.285l0.009,0.284l0.007,0.285l0.006,0.285l0.003,0.285l0.003,0.285l0,0.285l-0.001,0.286l-0.003,0.285l-0.004,0.285l-0.006,0.285l-0.008,0.286l-0.009,0.285l-0.011,0.285l-0.013,0.286l-0.015,0.285l-0.016,0.285l-0.018,0.286l-0.02,0.285l-0.022,0.285l-0.023,0.286l-0.026,0.285l-0.027,0.285l-0.029,0.285l-0.03,0.285l-0.033,0.285l-0.034,0.285l-0.037,0.285l-0.038,0.284l-0.04,0.285l-0.042,0.285l-0.044,0.284l-0.046,0.284l-0.048,0.285l-0.049,0.283l-0.052,0.284l-0.054,0.284l-0.056,0.283l-0.057,0.284l-0.06,0.283l-0.062,0.283l-0.063,0.282l-0.066,0.283l-0.068,0.282l-0.07,0.282l-0.071,0.282l-0.074,0.281l-0.076,0.282l-0.079,0.281l-0.08,0.281l-0.082,0.28l-0.085,0.28l-0.086,0.28l-0.089,0.279l-0.091,0.279l-0.093,0.279l-0.095,0.279l-0.098,0.278l-0.099,0.277l-0.102,0.278l-0.104,0.276l-0.106,0.277l-0.108,0.276l-0.111,0.275l-0.113,0.276l-0.115,0.274l-0.117,0.275l-0.12,0.273l-0.121,0.273l-0.125,0.273l-0.126,0.273l-0.128,0.271l-0.131,0.271l-0.133,0.271l-0.136,0.27l-0.138,0.27l-0.14,0.268l-0.142,0.268l-0.145,0.268l-0.147,0.267l-0.149,0.267l-0.152,0.266l-0.154,0.265l-0.156,0.264l-0.159,0.264l-0.161,0.263l-0.163,0.263l-0.166,0.261l-0.167,0.261l-0.171,0.261l-0.173,0.259l-0.175,0.259l-0.177,0.258l-0.18,0.258l-0.182,0.256l-0.185,0.256l-0.187,0.255l-0.189,0.255l-0.192,0.253l-0.194,0.252l-0.197,0.252l-0.199,0.251l-0.201,0.25l-0.204,0.25l-0.206,0.248l-0.208,0.248l-0.211,0.247l-0.214,0.245l-0.215,0.245l-0.218,0.244l-0.221,0.243l-0.223,0.243l-0.226,0.241l-0.227,0.24l-0.231,0.24l-0.232,0.238l-0.235,0.238l-0.238,0.237l-0.24,0.235l-0.242,0.235l-0.245,0.234l-0.248,0.233l-0.249,0.232l-0.253,0.231l-0.254,0.229l-0.257,0.229l-0.26,0.228l-0.262,0.227l-0.264,0.226l-0.267,0.225l-0.27,0.224l-0.271,0.223l-0.275,0.222l-0.277,0.221l-0.279,0.22l-0.281,0.218l-0.285,0.218l-0.286,0.217l-0.29,0.216l-0.291,0.215l-0.295,0.213l-0.296,0.213l-0.299,0.212l-0.302,0.21l-0.304,0.21l-0.212,0.143l-0.061,0.141l-0.18,0.418l-0.186,0.433l-0.19,0.446l-0.194,0.459l-0.199,0.471l-0.203,0.482l-0.418,1.002l-0.433,1.04l-0.445,1.077l-0.458,1.109l-0.468,1.137l-0.963,2.345l-0.494,1.2l-0.499,1.212l-0.504,1.221l-0.508,1.226l-0.511,1.227l-0.512,1.224l-0.257,0.612l-0.256,0.608l-0.256,0.607l-0.256,0.603l-0.256,0.599l-0.255,0.596l-0.255,0.592l-0.253,0.587l-0.253,0.582l-0.252,0.576l-0.251,0.57l-0.249,0.564l-0.248,0.557l-0.247,0.55l-0.245,0.542l-0.244,0.533l-0.241,0.526l-0.24,0.516l-0.238,0.507l-0.236,0.498l-0.234,0.488l-0.232,0.477l-0.231,0.467l-0.226,0.453l-0.115,0.227l-0.113,0.221l-0.112,0.219l-0.112,0.216l-0.111,0.212l-0.111,0.211l-0.111,0.207l-0.105,0.194l-0.203,0.345l-0.229,0.328l-0.118,0.156l-0.149,0.19l-0.151,0.188l-0.155,0.187l-0.159,0.186l-0.162,0.187l-0.167,0.186l-0.17,0.188l-0.175,0.188l-0.179,0.189l-0.184,0.19l-0.188,0.192l-0.192,0.193l-0.197,0.194l-0.201,0.196l-0.206,0.197l-0.211,0.199l-0.215,0.201l-0.221,0.202l-0.224,0.204l-0.23,0.205l-0.234,0.207l-0.239,0.208l-0.243,0.21l-0.248,0.212l-0.253,0.213l-0.257,0.214l-0.262,0.216l-0.267,0.217l-0.271,0.218l-0.275,0.22l-0.28,0.221l-0.285,0.222l-0.289,0.222l-0.293,0.224l-0.298,0.225l-0.302,0.226l-0.306,0.227l-0.311,0.227l-0.315,0.228l-0.319,0.229l-0.324,0.229l-0.327,0.23l-0.332,0.23l-0.335,0.23l-0.34,0.231l-0.344,0.231l-0.347,0.231l-0.352,0.231l-0.356,0.232l-0.359,0.231l-0.363,0.231l-0.367,0.231l-0.371,0.23l-0.375,0.23l-0.378,0.23l-0.381,0.229l-0.386,0.229l-0.388,0.228l-0.393,0.227l-0.396,0.227l-0.399,0.225l-0.403,0.225l-0.406,0.224l-0.41,0.222l-0.412,0.222l-0.416,0.22l-0.419,0.219l-0.423,0.217l-0.425,0.216l-0.429,0.214l-0.432,0.213l-0.435,0.211l-0.437,0.209l-0.441,0.207l-0.444,0.206l-0.446,0.203l-0.449,0.201l-0.449,0.197l-0.23,0.1l-0.228,0.099l-0.229,0.097l-0.229,0.097l-0.23,0.096l-0.23,0.096l-0.232,0.095l-0.231,0.094l-0.232,0.094l-0.234,0.093l-0.233,0.092l-0.235,0.092l-0.235,0.091l-0.236,0.09l-0.236,0.09l-0.237,0.089l-0.238,0.088l-0.238,0.087l-0.238,0.087l-0.24,0.086l-0.24,0.085l-0.24,0.084l-0.242,0.084l-0.241,0.082l-0.243,0.082l-0.242,0.081l-0.244,0.08l-0.244,0.08l-0.245,0.078l-0.245,0.078l-0.246,0.077l-0.246,0.076l-0.247,0.074l-0.248,0.074l-0.247,0.074l-0.249,0.072l-0.249,0.071l-0.249,0.07l-0.25,0.069l-0.251,0.069l-0.251,0.067l-0.252,0.066l-0.252,0.066l-0.252,0.064l-0.253,0.063l-0.254,0.062l-0.254,0.061l-0.255,0.06l-0.255,0.059l-0.255,0.058l-0.256,0.057l-0.256,0.055l-0.257,0.055l-0.258,0.053l-0.257,0.052l-0.258,0.051l-0.259,0.05l-0.259,0.049l-0.26,0.047l-0.26,0.047l-0.26,0.044l-0.26,0.044l-0.262,0.043l-0.261,0.041l-0.262,0.04l-0.262,0.039l-0.263,0.037l-0.263,0.036l-0.264,0.035l-0.264,0.033l-0.264,0.032l-0.264,0.031l-0.265,0.029l-0.266,0.028l-0.266,0.026l-0.265,0.025l-0.266,0.024l-0.267,0.022l-0.267,0.021l-0.268,0.019l-0.267,0.018l-0.267,0.016l-0.269,0.015l-0.268,0.014l-0.269,0.011l-0.269,0.011l-0.27,0.008l-0.269,0.007l-0.27,0.006l-0.27,0.004l-0.27,0.002l-0.271,0.001l-0.27,-0.001l-0.271,-0.003l-0.271,-0.004l-0.272,-0.006l-0.271,-0.008l-0.165,-0.006l-9.67,0.001l-0.378,-0.011l-0.894,-0.022l-0.65,-0.016l-0.779,-0.018l-0.901,-0.02l-1.017,-0.021l-1.127,-0.023l-1.229,-0.023l-1.327,-0.024l-1.418,-0.023l-1.502,-0.023l-1.58,-0.022l-1.651,-0.021l-1.719,-0.019l-0.88,-0.008l-0.896,-0.008l-0.908,-0.008l-0.921,-0.006l-0.933,-0.006l-0.943,-0.005l-0.954,-0.004l-0.963,-0.003l-0.971,-0.003l-0.98,-0.001l-0.986,0l-0.992,0.001l-0.997,0.002l-1.003,0.003l-1.006,0.005l-1.008,0.006l-1.011,0.007l-1.013,0.009l-1.012,0.01l-1.013,0.012l-1.012,0.013l-1.01,0.015l-1.007,0.017l-1.004,0.018l-0.999,0.021l-0.994,0.022l-0.989,0.024l-0.982,0.025l-0.974,0.028l-0.966,0.03l-0.957,0.032l-0.959,0.034l-0.259,0.009l-0.271,0.008l-0.271,0.006l-0.271,0.004l-0.271,0.003l-0.27,0.001l-0.271,-0.001l-0.27,-0.002l-0.269,-0.004l-0.27,-0.006l-0.269,-0.007l-0.269,-0.008l-0.269,-0.01l-0.268,-0.012l-0.268,-0.013l-0.268,-0.015l-0.268,-0.016l-0.267,-0.017l-0.267,-0.019l-0.267,-0.021l-0.266,-0.022l-0.266,-0.023l-0.265,-0.025l-0.266,-0.026l-0.265,-0.028l-0.265,-0.029l-0.264,-0.03l-0.264,-0.032l-0.263,-0.033l-0.263,-0.034l-0.264,-0.036l-0.262,-0.037l-0.262,-0.038l-0.262,-0.039l-0.261,-0.041l-0.261,-0.042l-0.26,-0.043l-0.261,-0.045l-0.259,-0.045l-0.259,-0.047l-0.259,-0.048l-0.258,-0.05l-0.258,-0.05l-0.258,-0.052l-0.257,-0.052l-0.257,-0.054l-0.256,-0.055l-0.255,-0.056l-0.256,-0.057l-0.255,-0.059l-0.254,-0.059l-0.254,-0.061l-0.253,-0.061l-0.253,-0.062l-0.253,-0.064l-0.252,-0.065l-0.251,-0.065l-0.251,-0.067l-0.25,-0.067l-0.25,-0.069l-0.25,-0.069l-0.248,-0.071l-0.248,-0.071l-0.248,-0.072l-0.247,-0.073l-0.247,-0.075l-0.246,-0.075l-0.246,-0.076l-0.245,-0.076l-0.245,-0.078l-0.244,-0.078l-0.243,-0.08l-0.243,-0.08l-0.242,-0.081l-0.241,-0.082l-0.241,-0.082l-0.241,-0.084l-0.24,-0.084l-0.239,-0.085l-0.239,-0.085l-0.238,-0.087l-0.237,-0.087l-0.237,-0.088l-0.237,-0.089l-0.235,-0.089l-0.235,-0.09l-0.234,-0.091l-0.234,-0.091l-0.233,-0.092l-0.232,-0.093l-0.232,-0.093l-0.231,-0.094l-0.23,-0.095l-0.23,-0.095l-0.229,-0.095l-0.232,-0.098l-0.451,-0.194l-0.452,-0.196l-0.449,-0.199l-0.447,-0.201l-0.443,-0.204l-0.441,-0.205l-0.437,-0.206l-0.435,-0.209l-0.431,-0.21l-0.429,-0.212l-0.425,-0.214l-0.423,-0.215l-0.419,-0.217l-0.416,-0.217l-0.412,-0.219l-0.41,-0.221l-0.406,-0.221l-0.402,-0.222l-0.4,-0.223l-0.395,-0.224l-0.393,-0.225l-0.389,-0.226l-0.385,-0.226l-0.382,-0.227l-0.378,-0.227l-0.374,-0.228l-0.371,-0.228l-0.367,-0.229l-0.363,-0.228l-0.359,-0.229l-0.356,-0.229l-0.352,-0.229l-0.347,-0.228l-0.344,-0.229l-0.34,-0.228l-0.335,-0.228l-0.332,-0.228l-0.327,-0.227l-0.324,-0.227l-0.319,-0.227l-0.315,-0.225l-0.31,-0.225l-0.307,-0.224l-0.302,-0.224l-0.298,-0.222l-0.293,-0.222l-0.289,-0.221l-0.285,-0.219l-0.28,-0.219l-0.275,-0.217l-0.271,-0.216l-0.267,-0.215l-0.262,-0.214l-0.257,-0.212l-0.253,-0.21l-0.248,-0.21l-0.244,-0.208l-0.239,-0.206l-0.234,-0.205l-0.229,-0.203l-0.225,-0.202l-0.221,-0.2l-0.215,-0.199l-0.211,-0.197l-0.206,-0.195l-0.202,-0.194l-0.197,-0.192l-0.192,-0.192l-0.188,-0.189l-0.184,-0.188l-0.179,-0.188l-0.175,-0.186l-0.171,-0.186l-0.167,-0.185l-0.163,-0.185l-0.158,-0.185l-0.156,-0.185l-0.152,-0.187l-0.148,-0.188l-0.119,-0.154l-0.232,-0.329l-0.206,-0.346l-0.104,-0.192l-0.111,-0.205l-0.111,-0.208l-0.112,-0.211l-0.112,-0.214l-0.112,-0.216l-0.113,-0.22l-0.115,-0.225l-0.227,-0.448l-0.23,-0.463l-0.232,-0.473l-0.234,-0.483l-0.237,-0.492l-0.238,-0.503l-0.24,-0.511l-0.242,-0.52l-0.243,-0.528l-0.246,-0.537l-0.246,-0.544l-0.249,-0.551l-0.249,-0.558l-0.251,-0.565l-0.252,-0.57l-0.253,-0.576l-0.253,-0.581l-0.255,-0.586l-0.255,-0.59l-0.256,-0.593l-0.256,-0.597l-0.256,-0.6l-0.257,-0.603l-0.257,-0.605l-0.512,-1.211l-0.51,-1.215l-0.508,-1.213l-0.505,-1.209l-0.499,-1.199l-0.493,-1.187l-0.964,-2.32l-0.468,-1.126l-0.457,-1.098l-0.446,-1.065l-0.432,-1.029l-0.418,-0.991l-0.203,-0.477l-0.199,-0.466l-0.194,-0.455l-0.19,-0.441l-0.186,-0.428l-0.18,-0.414l-0.055,-0.124l-0.205,-0.138l-0.304,-0.207l-0.302,-0.209l-0.299,-0.209l-0.297,-0.211l-0.294,-0.212l-0.292,-0.212l-0.289,-0.214l-0.287,-0.214l-0.284,-0.216l-0.281,-0.217l-0.28,-0.218l-0.277,-0.218l-0.274,-0.22l-0.271,-0.221l-0.269,-0.222l-0.268,-0.223l-0.264,-0.223l-0.262,-0.225l-0.259,-0.226l-0.257,-0.227l-0.254,-0.228l-0.252,-0.228l-0.25,-0.23l-0.247,-0.231l-0.245,-0.232l-0.242,-0.232l-0.24,-0.234l-0.237,-0.235l-0.235,-0.235l-0.232,-0.236l-0.23,-0.238l-0.228,-0.238l-0.225,-0.24l-0.223,-0.24l-0.22,-0.241l-0.218,-0.242l-0.215,-0.242l-0.213,-0.244l-0.211,-0.245l-0.208,-0.245l-0.206,-0.247l-0.203,-0.247l-0.201,-0.248l-0.199,-0.249l-0.196,-0.25l-0.194,-0.25l-0.191,-0.252l-0.189,-0.252l-0.186,-0.253l-0.184,-0.253l-0.182,-0.255l-0.18,-0.255l-0.177,-0.257l-0.174,-0.257l-0.172,-0.257l-0.17,-0.258l-0.168,-0.259l-0.165,-0.26l-0.163,-0.261l-0.16,-0.261l-0.158,-0.262l-0.156,-0.262l-0.153,-0.263l-0.151,-0.264l-0.149,-0.265l-0.146,-0.265l-0.144,-0.266l-0.141,-0.266l-0.14,-0.267l-0.137,-0.267l-0.134,-0.268l-0.133,-0.269l-0.13,-0.269l-0.128,-0.27l-0.125,-0.27l-0.123,-0.271l-0.121,-0.271l-0.119,-0.272l-0.116,-0.273l-0.115,-0.272l-0.111,-0.273l-0.11,-0.274l-0.107,-0.274l-0.106,-0.275l-0.103,-0.275l-0.1,-0.275l-0.099,-0.276l-0.096,-0.276l-0.094,-0.276l-0.092,-0.277l-0.09,-0.277l-0.088,-0.278l-0.085,-0.278l-0.084,-0.278l-0.081,-0.278l-0.079,-0.279l-0.077,-0.279l-0.075,-0.279l-0.073,-0.28l-0.07,-0.28l-0.069,-0.28l-0.067,-0.28l-0.064,-0.28l-0.062,-0.281l-0.061,-0.281l-0.058,-0.281l-0.057,-0.282l-0.054,-0.281l-0.052,-0.282l-0.051,-0.281l-0.048,-0.282l-0.046,-0.282l-0.045,-0.283l-0.042,-0.282l-0.041,-0.282l-0.039,-0.283l-0.037,-0.282l-0.034,-0.283l-0.033,-0.283l-0.032,-0.283l-0.029,-0.283l-0.027,-0.283l-0.026,-0.283l-0.024,-0.283l-0.022,-0.283l-0.02,-0.283l-0.018,-0.283l-0.017,-0.283l-0.015,-0.284l-0.013,-0.283l-0.011,-0.283l-0.009,-0.283l-0.008,-0.283l-0.006,-0.283l-0.005,-0.283l-0.003,-0.283l-0.001,-0.283l0.001,-0.283l0.002,-0.283l0.004,-0.283l0.005,-0.283l0.007,-0.282l0.009,-0.283l0.01,-0.282l0.012,-0.283l0.014,-0.282l0.015,-0.282l0.016,-0.283l0.018,-0.282l0.02,-0.281l0.021,-0.282l0.023,-0.282l0.024,-0.282l0.026,-0.281l0.027,-0.281l0.028,-0.281l0.03,-0.281l0.032,-0.281l0.032,-0.281l0.035,-0.28l0.035,-0.281l0.037,-0.28l0.039,-0.28l0.04,-0.28l0.041,-0.28l0.042,-0.279l0.044,-0.28l0.045,-0.279l0.047,-0.279l0.047,-0.279l0.05,-0.278l0.05,-0.279l0.052,-0.278l0.052,-0.278l0.055,-0.278l0.055,-0.277l0.057,-0.278l0.057,-0.277l0.06,-0.277l0.06,-0.276l0.061,-0.277l0.063,-0.276l0.064,-0.276l0.065,-0.276l0.066,-0.275l0.067,-0.276l0.069,-0.275l0.069,-0.274l0.071,-0.275l0.071,-0.274l0.073,-0.274l0.074,-0.274l0.075,-0.273l0.076,-0.273l0.077,-0.273l0.079,-0.273l0.079,-0.272l0.08,-0.272l0.081,-0.272l0.082,-0.272l0.084,-0.271l0.084,-0.271l0.085,-0.27l0.086,-0.27l0.088,-0.27l0.088,-0.27l0.089,-0.269l0.09,-0.269l0.091,-0.269l0.091,-0.269l0.093,-0.268l0.094,-0.267l0.094,-0.268l0.096,-0.267l0.096,-0.267l0.097,-0.266l0.098,-0.266l0.099,-0.266l0.1,-0.265l0.1,-0.265l0.102,-0.265l0.102,-0.264l0.103,-0.264l0.103,-0.264l0.105,-0.263l0.105,-0.262l0.106,-0.263l0.107,-0.262l0.107,-0.262l0.109,-0.261l0.109,-0.261l0.109,-0.26l0.111,-0.26l0.111,-0.26l0.113,-0.263l0.225,-0.514l0.228,-0.516l0.231,-0.514l0.234,-0.512l0.236,-0.511l0.238,-0.508l0.241,-0.507l0.243,-0.506l0.246,-0.503l0.247,-0.502l0.25,-0.499l0.251,-0.498l0.254,-0.496l0.255,-0.493l0.257,-0.492l0.259,-0.49l0.261,-0.487l0.262,-0.486l0.264,-0.483l0.265,-0.482l0.267,-0.479l0.268,-0.477l0.269,-0.474l0.271,-0.472l0.272,-0.47l0.273,-0.468l0.274,-0.465l0.274,-0.463l0.276,-0.461l0.277,-0.457l0.277,-0.456l0.278,-0.453l0.279,-0.45l0.279,-0.448l0.28,-0.445l0.28,-0.443l0.281,-0.44l0.281,-0.437l0.281,-0.434l0.281,-0.432l0.282,-0.428l0.281,-0.426l0.282,-0.424l0.281,-0.42l0.282,-0.417l0.281,-0.414l0.281,-0.411l0.281,-0.408l0.28,-0.406l0.28,-0.402l0.279,-0.398l0.279,-0.396l0.278,-0.393l0.277,-0.389l0.277,-0.386l0.275,-0.382l0.275,-0.38l0.274,-0.376l0.273,-0.372l0.272,-0.369l0.271,-0.366l0.269,-0.362l0.268,-0.359l0.267,-0.355l0.265,-0.351l0.264,-0.348l0.263,-0.344l0.26,-0.341l0.259,-0.336l0.258,-0.333l0.255,-0.329l0.254,-0.325l0.252,-0.322l0.25,-0.317l0.248,-0.313l0.245,-0.31l0.244,-0.305l0.243,-0.304l0.473,-0.588l0.466,-0.574l0.455,-0.557l0.445,-0.539l0.433,-0.523l0.422,-0.504l0.409,-0.486l0.396,-0.468l0.383,-0.449l0.369,-0.43l0.354,-0.411l0.34,-0.391l0.324,-0.372l0.307,-0.351l0.291,-0.33l0.274,-0.309l0.256,-0.289l0.452,-0.508l0.373,-0.415l0.283,-0.318l0.099,-0.111l0.002,-0.002l0.004,-0.007l0.43,-0.495l0.488,-0.438l0.539,-0.373l0.581,-0.304l0.615,-0.228l0.638,-0.149l0.652,-0.069l0.083,-0.004l0.091,-0.004l0.141,-0.008l0.186,-0.011l0.231,-0.015l0.275,-0.02l0.317,-0.025l0.358,-0.03l0.403,-0.036l0.21,-0.02l0.224,-0.022l0.233,-0.024l0.243,-0.026l0.253,-0.027l0.261,-0.029l0.27,-0.031l0.28,-0.034l0.288,-0.035l0.297,-0.037l0.305,-0.04l0.314,-0.042l0.322,-0.044l0.33,-0.047l0.338,-0.049l0.346,-0.051l0.354,-0.054l0.361,-0.057l0.369,-0.059l0.376,-0.062l0.383,-0.065l0.39,-0.067l0.397,-0.071l0.405,-0.073l0.41,-0.077l0.418,-0.079l0.423,-0.083l0.43,-0.085l0.436,-0.089l0.443,-0.093l0.448,-0.095l0.454,-0.099l0.459,-0.103l0.465,-0.106l0.47,-0.109l0.475,-0.114l0.481,-0.116l0.486,-0.121l0.49,-0.125l0.495,-0.128l0.5,-0.132l0.504,-0.136l0.508,-0.14l0.516,-0.145l0.254,-0.073l0.259,-0.075l0.26,-0.076l0.261,-0.076l0.261,-0.078l0.263,-0.079l0.263,-0.08l0.265,-0.081l0.265,-0.082l0.266,-0.084l0.267,-0.084l0.268,-0.085l0.269,-0.087l0.269,-0.088l0.27,-0.089l0.271,-0.09l0.272,-0.091l0.272,-0.092l0.274,-0.093l0.273,-0.095l0.275,-0.096l0.275,-0.097l0.276,-0.098l0.277,-0.099l0.277,-0.1l0.277,-0.102l0.279,-0.103l0.279,-0.104l0.279,-0.105l0.28,-0.107l0.28,-0.108l0.281,-0.109l0.282,-0.11l0.282,-0.111l0.282,-0.113l0.283,-0.114l0.283,-0.115l0.284,-0.117l0.284,-0.118l0.284,-0.119l0.285,-0.12l0.285,-0.122l0.286,-0.123l0.286,-0.125l0.286,-0.125l0.286,-0.127l0.286,-0.129l0.287,-0.13l0.288,-0.131l0.287,-0.132l0.287,-0.134l0.288,-0.135l0.288,-0.137l0.288,-0.138l0.288,-0.139l0.288,-0.141l0.289,-0.142l0.288,-0.143l0.289,-0.145l0.288,-0.146l0.289,-0.148l0.288,-0.15l0.289,-0.15l0.289,-0.152l0.288,-0.154l0.289,-0.155l0.289,-0.156l0.288,-0.158l0.288,-0.16l0.289,-0.161l0.288,-0.162l0.288,-0.164l0.288,-0.165l0.287,-0.167l0.288,-0.169l0.287,-0.169l0.288,-0.172l0.287,-0.173l0.286,-0.174l0.287,-0.177l0.286,-0.177l0.286,-0.179l0.285,-0.181l0.286,-0.183l0.285,-0.183l0.284,-0.186l0.285,-0.187l0.283,-0.189l0.284,-0.19l0.283,-0.192l0.283,-0.193l0.282,-0.196l0.282,-0.196l0.281,-0.199l0.281,-0.2l0.281,-0.201l0.28,-0.204l0.279,-0.205l0.279,-0.207l0.278,-0.208l0.278,-0.21l0.277,-0.212l0.277,-0.213l0.276,-0.215l0.275,-0.217l0.275,-0.219l0.274,-0.22l0.273,-0.222l0.273,-0.224l0.272,-0.225l0.271,-0.228l0.271,-0.228l0.27,-0.231l0.269,-0.233l0.268,-0.234l0.268,-0.236l0.267,-0.238l0.266,-0.24l0.265,-0.241l0.264,-0.244l0.264,-0.245l0.263,-0.247l0.261,-0.249l0.261,-0.25l0.26,-0.253l0.26,-0.254l0.258,-0.256l0.269,-0.27l0.226,-0.227l0.238,-0.235l0.239,-0.231l0.238,-0.228l0.239,-0.225l0.239,-0.221l0.24,-0.219l0.239,-0.214l0.241,-0.212l0.24,-0.208l0.242,-0.204l0.241,-0.202l0.243,-0.198l0.242,-0.194l0.244,-0.191l0.243,-0.188l0.245,-0.185l0.246,-0.181l0.246,-0.177l0.246,-0.175l0.248,-0.17l0.248,-0.168l0.249,-0.164l0.251,-0.16l0.251,-0.157l0.251,-0.153l0.253,-0.149l0.254,-0.147l0.255,-0.142l0.255,-0.139l0.257,-0.135l0.258,-0.131l0.259,-0.127l0.259,-0.124l0.261,-0.12l0.262,-0.116l0.255,-0.108l0.14,-0.058l0.132,-0.053l0.132,-0.053l0.133,-0.051l0.132,-0.051l0.134,-0.049l0.133,-0.049l0.134,-0.047l0.134,-0.046l0.133,-0.045l0.134,-0.045l0.135,-0.043l0.135,-0.042l0.135,-0.041l0.135,-0.04l0.135,-0.039l0.136,-0.038l0.136,-0.037l0.135,-0.035l0.137,-0.035l0.136,-0.033l0.136,-0.032l0.137,-0.032l0.137,-0.03l0.137,-0.029l0.137,-0.028l0.138,-0.027l0.137,-0.025l0.137,-0.025l0.139,-0.023l0.137,-0.022l0.137,-0.021l0.139,-0.02l0.138,-0.019l0.138,-0.018l0.139,-0.016l0.138,-0.016l0.138,-0.014l0.138,-0.013l0.139,-0.012l0.138,-0.011l0.138,-0.009l0.139,-0.009l0.138,-0.007l0.139,-0.006l0.139,-0.005l0.138,-0.004l0.139,-0.003l0.138,-0.001l0.137,-0.001l0.139,0.001Zm-0.239,5.238l-0.095,0.002l-0.095,0.001l-0.095,0.003l-0.095,0.003l-0.095,0.005l-0.095,0.005l-0.095,0.006l-0.095,0.006l-0.095,0.008l-0.096,0.008l-0.095,0.009l-0.095,0.01l-0.096,0.01l-0.095,0.011l-0.095,0.013l-0.096,0.013l-0.095,0.013l-0.096,0.015l-0.095,0.016l-0.096,0.016l-0.095,0.017l-0.096,0.018l-0.096,0.018l-0.095,0.02l-0.096,0.02l-0.096,0.021l-0.096,0.022l-0.096,0.023l-0.096,0.023l-0.096,0.025l-0.096,0.025l-0.096,0.026l-0.096,0.027l-0.097,0.027l-0.096,0.029l-0.096,0.029l-0.097,0.03l-0.096,0.031l-0.097,0.032l-0.096,0.033l-0.097,0.033l-0.097,0.035l-0.096,0.035l-0.097,0.036l-0.097,0.036l-0.097,0.038l-0.097,0.039l-0.097,0.039l-0.098,0.04l-0.194,0.083l-0.195,0.086l-0.195,0.09l-0.196,0.093l-0.196,0.096l-0.196,0.1l-0.196,0.104l-0.197,0.106l-0.197,0.111l-0.198,0.113l-0.198,0.117l-0.198,0.121l-0.199,0.124l-0.199,0.128l-0.2,0.131l-0.199,0.135l-0.201,0.138l-0.2,0.141l-0.202,0.146l-0.201,0.148l-0.202,0.153l-0.203,0.156l-0.203,0.159l-0.203,0.163l-0.204,0.167l-0.205,0.17l-0.205,0.174l-0.205,0.178l-0.206,0.181l-0.207,0.185l-0.207,0.189l-0.207,0.192l-0.208,0.196l-0.209,0.199l-0.209,0.203l-0.21,0.207l-0.21,0.211l-0.278,0.278l-0.278,0.277l-0.28,0.274l-0.28,0.272l-0.281,0.27l-0.283,0.269l-0.283,0.266l-0.284,0.264l-0.284,0.262l-0.286,0.26l-0.287,0.258l-0.287,0.256l-0.288,0.254l-0.289,0.253l-0.289,0.25l-0.291,0.248l-0.291,0.246l-0.292,0.245l-0.292,0.242l-0.293,0.241l-0.294,0.238l-0.294,0.237l-0.296,0.235l-0.295,0.233l-0.297,0.231l-0.296,0.229l-0.298,0.227l-0.298,0.225l-0.298,0.224l-0.299,0.221l-0.3,0.22l-0.3,0.218l-0.301,0.216l-0.3,0.215l-0.302,0.212l-0.302,0.211l-0.302,0.209l-0.302,0.207l-0.303,0.205l-0.304,0.204l-0.303,0.202l-0.304,0.2l-0.305,0.198l-0.304,0.197l-0.305,0.194l-0.305,0.194l-0.306,0.191l-0.305,0.19l-0.306,0.188l-0.306,0.186l-0.306,0.184l-0.306,0.183l-0.307,0.182l-0.306,0.179l-0.307,0.178l-0.307,0.176l-0.307,0.175l-0.307,0.173l-0.307,0.171l-0.307,0.17l-0.307,0.168l-0.307,0.167l-0.307,0.164l-0.307,0.164l-0.307,0.162l-0.307,0.16l-0.307,0.158l-0.306,0.157l-0.307,0.156l-0.306,0.154l-0.307,0.152l-0.306,0.151l-0.306,0.149l-0.305,0.148l-0.306,0.147l-0.305,0.144l-0.305,0.144l-0.305,0.142l-0.305,0.14l-0.304,0.139l-0.304,0.137l-0.304,0.136l-0.303,0.135l-0.303,0.133l-0.303,0.132l-0.302,0.13l-0.302,0.129l-0.301,0.128l-0.301,0.126l-0.3,0.124l-0.3,0.124l-0.3,0.122l-0.299,0.12l-0.298,0.119l-0.298,0.118l-0.298,0.117l-0.297,0.115l-0.296,0.114l-0.296,0.112l-0.295,0.111l-0.294,0.11l-0.294,0.109l-0.293,0.107l-0.293,0.106l-0.291,0.105l-0.291,0.103l-0.291,0.103l-0.289,0.101l-0.289,0.099l-0.288,0.099l-0.287,0.097l-0.287,0.096l-0.285,0.095l-0.285,0.094l-0.284,0.092l-0.283,0.091l-0.282,0.09l-0.282,0.089l-0.28,0.088l-0.279,0.086l-0.279,0.086l-0.277,0.084l-0.277,0.083l-0.275,0.082l-0.275,0.081l-0.273,0.08l-0.272,0.078l-0.272,0.078l-0.539,0.152l-0.535,0.147l-0.53,0.143l-0.526,0.139l-0.521,0.135l-0.516,0.131l-0.51,0.127l-0.506,0.123l-0.5,0.119l-0.494,0.115l-0.489,0.112l-0.484,0.108l-0.477,0.104l-0.471,0.1l-0.466,0.097l-0.459,0.094l-0.452,0.09l-0.446,0.087l-0.44,0.084l-0.432,0.08l-0.426,0.078l-0.419,0.074l-0.411,0.071l-0.404,0.068l-0.397,0.066l-0.389,0.062l-0.382,0.06l-0.373,0.057l-0.366,0.055l-0.358,0.051l-0.349,0.05l-0.341,0.047l-0.333,0.044l-0.324,0.042l-0.315,0.04l-0.307,0.037l-0.297,0.036l-0.289,0.033l-0.279,0.031l-0.27,0.03l-0.26,0.027l-0.251,0.026l-0.241,0.023l-0.231,0.022l-0.432,0.039l-0.391,0.033l-0.348,0.027l-0.306,0.022l-0.261,0.018l-0.217,0.013l-0.17,0.009l-0.122,0.006l-0.1,0.004l0.002,0.001l0,0.002l-0.005,0.009l-0.01,0.015l-0.016,0.021l-0.049,0.06l-0.072,0.083l-0.093,0.106l-0.115,0.13l-0.291,0.325l-0.37,0.414l-0.445,0.499l-0.249,0.281l-0.267,0.301l-0.283,0.322l-0.299,0.341l-0.315,0.362l-0.33,0.38l-0.345,0.4l-0.359,0.418l-0.372,0.437l-0.386,0.455l-0.398,0.473l-0.41,0.491l-0.422,0.508l-0.432,0.525l-0.443,0.542l-0.454,0.559l-0.462,0.574l-0.235,0.293l-0.237,0.297l-0.239,0.301l-0.241,0.305l-0.243,0.309l-0.245,0.313l-0.247,0.316l-0.248,0.32l-0.25,0.324l-0.252,0.327l-0.254,0.331l-0.255,0.335l-0.257,0.338l-0.258,0.341l-0.259,0.345l-0.261,0.349l-0.261,0.352l-0.263,0.355l-0.264,0.359l-0.265,0.361l-0.266,0.366l-0.267,0.368l-0.268,0.371l-0.268,0.375l-0.27,0.378l-0.269,0.381l-0.271,0.383l-0.271,0.387l-0.271,0.39l-0.272,0.393l-0.272,0.395l-0.272,0.399l-0.272,0.401l-0.273,0.404l-0.272,0.407l-0.273,0.41l-0.272,0.412l-0.273,0.415l-0.272,0.417l-0.272,0.42l-0.271,0.423l-0.272,0.425l-0.27,0.427l-0.271,0.43l-0.269,0.432l-0.269,0.435l-0.268,0.437l-0.268,0.439l-0.266,0.441l-0.266,0.444l-0.265,0.446l-0.263,0.448l-0.263,0.45l-0.261,0.452l-0.261,0.454l-0.258,0.456l-0.258,0.458l-0.256,0.46l-0.255,0.462l-0.253,0.464l-0.251,0.465l-0.25,0.467l-0.248,0.469l-0.246,0.471l-0.244,0.472l-0.243,0.474l-0.24,0.476l-0.238,0.477l-0.237,0.479l-0.234,0.48l-0.231,0.481l-0.23,0.483l-0.227,0.485l-0.224,0.485l-0.222,0.487l-0.22,0.488l-0.216,0.49l-0.214,0.49l-0.106,0.246l-0.106,0.246l-0.104,0.246l-0.104,0.247l-0.103,0.247l-0.103,0.247l-0.102,0.247l-0.1,0.248l-0.101,0.248l-0.099,0.248l-0.099,0.248l-0.097,0.249l-0.098,0.249l-0.096,0.249l-0.095,0.249l-0.095,0.25l-0.094,0.25l-0.093,0.25l-0.092,0.25l-0.091,0.25l-0.091,0.251l-0.089,0.25l-0.089,0.251l-0.088,0.252l-0.087,0.251l-0.086,0.251l-0.085,0.252l-0.084,0.252l-0.083,0.252l-0.083,0.252l-0.081,0.252l-0.081,0.253l-0.079,0.252l-0.079,0.253l-0.077,0.253l-0.077,0.253l-0.076,0.253l-0.075,0.253l-0.073,0.254l-0.073,0.253l-0.072,0.254l-0.07,0.253l-0.07,0.254l-0.068,0.254l-0.068,0.254l-0.066,0.254l-0.066,0.254l-0.064,0.254l-0.063,0.255l-0.062,0.254l-0.062,0.254l-0.06,0.255l-0.058,0.254l-0.058,0.255l-0.057,0.255l-0.055,0.254l-0.055,0.255l-0.053,0.255l-0.052,0.254l-0.051,0.255l-0.049,0.255l-0.049,0.255l-0.047,0.255l-0.046,0.254l-0.045,0.255l-0.044,0.255l-0.042,0.255l-0.041,0.255l-0.04,0.254l-0.039,0.255l-0.037,0.255l-0.037,0.254l-0.035,0.255l-0.033,0.255l-0.033,0.254l-0.031,0.255l-0.029,0.254l-0.029,0.255l-0.027,0.254l-0.026,0.254l-0.024,0.254l-0.023,0.254l-0.022,0.254l-0.021,0.254l-0.019,0.254l-0.017,0.254l-0.017,0.254l-0.014,0.253l-0.014,0.254l-0.012,0.253l-0.011,0.253l-0.009,0.253l-0.008,0.253l-0.006,0.253l-0.005,0.253l-0.003,0.252l-0.002,0.253l-0.001,0.252l0.001,0.252l0.003,0.252l0.004,0.252l0.005,0.251l0.007,0.252l0.009,0.251l0.01,0.251l0.011,0.251l0.013,0.251l0.015,0.25l0.016,0.25l0.018,0.251l0.019,0.249l0.021,0.25l0.023,0.25l0.024,0.249l0.026,0.249l0.027,0.249l0.029,0.248l0.031,0.248l0.032,0.249l0.034,0.247l0.036,0.248l0.037,0.247l0.039,0.247l0.04,0.247l0.043,0.247l0.044,0.246l0.045,0.246l0.048,0.245l0.049,0.246l0.051,0.245l0.053,0.245l0.054,0.244l0.056,0.244l0.058,0.244l0.06,0.244l0.061,0.243l0.063,0.243l0.065,0.242l0.067,0.242l0.069,0.242l0.07,0.242l0.072,0.241l0.075,0.241l0.075,0.24l0.078,0.24l0.08,0.24l0.081,0.24l0.084,0.239l0.085,0.238l0.087,0.238l0.089,0.238l0.091,0.238l0.093,0.237l0.095,0.236l0.097,0.237l0.099,0.235l0.1,0.236l0.103,0.235l0.104,0.234l0.107,0.235l0.108,0.233l0.111,0.234l0.112,0.232l0.115,0.233l0.117,0.232l0.118,0.231l0.121,0.231l0.122,0.231l0.125,0.23l0.127,0.229l0.128,0.229l0.131,0.229l0.133,0.228l0.135,0.228l0.137,0.227l0.139,0.227l0.142,0.226l0.143,0.225l0.145,0.225l0.148,0.225l0.15,0.224l0.152,0.224l0.154,0.223l0.156,0.222l0.159,0.222l0.16,0.221l0.163,0.221l0.165,0.22l0.167,0.22l0.17,0.219l0.171,0.219l0.174,0.218l0.176,0.217l0.179,0.217l0.18,0.216l0.183,0.216l0.185,0.215l0.188,0.214l0.189,0.214l0.192,0.214l0.195,0.212l0.196,0.212l0.199,0.212l0.201,0.21l0.204,0.21l0.206,0.21l0.208,0.209l0.211,0.208l0.213,0.207l0.215,0.207l0.218,0.207l0.22,0.205l0.223,0.205l0.225,0.204l0.227,0.204l0.23,0.203l0.232,0.202l0.235,0.201l0.237,0.201l0.239,0.2l0.242,0.199l0.245,0.199l0.247,0.198l0.249,0.197l0.252,0.197l0.254,0.195l0.257,0.195l0.26,0.195l0.262,0.193l0.264,0.193l0.267,0.192l0.27,0.191l0.272,0.191l0.275,0.19l0.277,0.189l0.28,0.188l0.283,0.188l0.285,0.186l0.287,0.186l0.291,0.185l0.167,0.37l0.171,0.385l0.177,0.399l0.181,0.413l0.186,0.426l0.19,0.439l0.194,0.451l0.198,0.463l0.203,0.474l0.206,0.485l0.422,1l0.436,1.038l0.448,1.072l0.46,1.103l0.469,1.128l0.964,2.321l0.492,1.185l0.498,1.196l0.502,1.203l0.506,1.207l0.507,1.207l0.508,1.203l0.254,0.599l0.254,0.596l0.254,0.594l0.253,0.59l0.253,0.586l0.252,0.582l0.25,0.577l0.25,0.572l0.249,0.566l0.247,0.56l0.246,0.554l0.244,0.546l0.243,0.539l0.24,0.53l0.239,0.522l0.236,0.513l0.234,0.503l0.232,0.494l0.229,0.483l0.226,0.472l0.224,0.46l0.22,0.449l0.218,0.436l0.213,0.424l0.106,0.207l0.105,0.203l0.104,0.2l0.103,0.197l0.102,0.193l0.101,0.189l0.1,0.186l0.099,0.182l0.093,0.121l0.099,0.125l0.105,0.129l0.11,0.132l0.117,0.136l0.123,0.139l0.128,0.142l0.134,0.146l0.14,0.149l0.146,0.152l0.151,0.156l0.157,0.158l0.162,0.161l0.168,0.164l0.173,0.166l0.179,0.17l0.184,0.171l0.189,0.175l0.195,0.177l0.2,0.179l0.205,0.181l0.21,0.184l0.215,0.186l0.22,0.188l0.225,0.19l0.23,0.191l0.235,0.194l0.239,0.195l0.245,0.197l0.249,0.199l0.254,0.2l0.258,0.202l0.263,0.203l0.267,0.204l0.272,0.205l0.277,0.207l0.281,0.208l0.285,0.208l0.289,0.21l0.294,0.21l0.298,0.211l0.302,0.212l0.306,0.213l0.31,0.213l0.314,0.213l0.318,0.214l0.322,0.214l0.326,0.215l0.33,0.214l0.333,0.215l0.337,0.214l0.341,0.215l0.344,0.214l0.348,0.214l0.351,0.214l0.355,0.213l0.359,0.213l0.361,0.213l0.365,0.211l0.369,0.211l0.371,0.211l0.375,0.209l0.378,0.209l0.381,0.207l0.384,0.207l0.386,0.205l0.39,0.204l0.393,0.203l0.396,0.202l0.398,0.2l0.401,0.198l0.404,0.197l0.406,0.195l0.409,0.194l0.412,0.191l0.414,0.19l0.417,0.187l0.419,0.186l0.421,0.184l0.424,0.181l0.212,0.09l0.214,0.089l0.213,0.088l0.215,0.088l0.215,0.088l0.215,0.087l0.216,0.086l0.216,0.085l0.217,0.085l0.218,0.084l0.218,0.084l0.218,0.083l0.219,0.082l0.22,0.081l0.22,0.081l0.22,0.08l0.221,0.079l0.222,0.079l0.221,0.078l0.223,0.077l0.222,0.076l0.224,0.076l0.223,0.074l0.224,0.074l0.225,0.074l0.224,0.072l0.226,0.071l0.225,0.071l0.226,0.07l0.227,0.069l0.227,0.068l0.227,0.067l0.228,0.067l0.228,0.065l0.228,0.065l0.229,0.064l0.229,0.062l0.229,0.062l0.23,0.061l0.23,0.06l0.23,0.059l0.231,0.058l0.231,0.057l0.231,0.056l0.232,0.056l0.232,0.054l0.232,0.053l0.232,0.052l0.233,0.051l0.233,0.05l0.233,0.049l0.234,0.048l0.234,0.047l0.234,0.045l0.234,0.045l0.234,0.044l0.235,0.042l0.235,0.041l0.235,0.041l0.236,0.039l0.235,0.038l0.236,0.036l0.236,0.036l0.236,0.034l0.237,0.034l0.236,0.032l0.237,0.031l0.237,0.029l0.237,0.029l0.237,0.027l0.237,0.026l0.238,0.025l0.237,0.023l0.238,0.022l0.238,0.021l0.238,0.02l0.238,0.018l0.238,0.017l0.238,0.016l0.238,0.014l0.239,0.013l0.238,0.012l0.239,0.01l0.238,0.009l0.239,0.008l0.239,0.006l0.239,0.005l0.239,0.003l0.238,0.002l0.239,0.001l0.239,-0.001l0.239,-0.003l0.239,-0.003l0.239,-0.006l0.239,-0.006l0.239,-0.008l0.961,-0.035l0.97,-0.032l0.978,-0.03l0.987,-0.029l0.993,-0.026l0.999,-0.024l1.005,-0.022l1.009,-0.021l1.014,-0.018l1.016,-0.017l1.019,-0.015l1.02,-0.014l1.02,-0.011l1.021,-0.011l1.02,-0.009l1.018,-0.007l1.016,-0.006l1.013,-0.005l1.008,-0.003l1.004,-0.002l0.998,-0.001l0.992,0l0.985,0.001l0.977,0.003l0.968,0.003l0.959,0.004l0.949,0.005l0.937,0.006l0.926,0.007l0.913,0.007l0.9,0.008l0.885,0.009l1.726,0.019l1.659,0.02l1.588,0.022l1.509,0.023l1.424,0.024l1.333,0.024l1.236,0.023l1.132,0.023l1.023,0.021l0.906,0.021l0.784,0.018l0.656,0.015l0.9,0.023l0.312,0.009l9.69,-0.001l0.239,0.009l0.239,0.006l0.239,0.006l0.239,0.003l0.239,0.003l0.239,0.001l0.239,-0.001l0.238,-0.002l0.239,-0.003l0.239,-0.005l0.239,-0.007l0.239,-0.007l0.238,-0.009l0.239,-0.011l0.238,-0.011l0.239,-0.014l0.238,-0.014l0.238,-0.016l0.238,-0.017l0.238,-0.019l0.238,-0.02l0.238,-0.021l0.238,-0.022l0.237,-0.024l0.238,-0.025l0.237,-0.026l0.237,-0.027l0.237,-0.029l0.237,-0.03l0.237,-0.031l0.236,-0.033l0.237,-0.033l0.236,-0.035l0.236,-0.036l0.236,-0.037l0.235,-0.039l0.236,-0.039l0.235,-0.041l0.235,-0.041l0.235,-0.043l0.234,-0.044l0.234,-0.046l0.234,-0.046l0.234,-0.047l0.234,-0.049l0.233,-0.049l0.233,-0.051l0.233,-0.051l0.232,-0.053l0.232,-0.053l0.232,-0.055l0.232,-0.056l0.231,-0.056l0.231,-0.058l0.231,-0.059l0.23,-0.06l0.23,-0.06l0.23,-0.062l0.229,-0.062l0.229,-0.064l0.229,-0.064l0.228,-0.065l0.228,-0.067l0.228,-0.067l0.227,-0.068l0.227,-0.068l0.227,-0.07l0.226,-0.071l0.225,-0.071l0.226,-0.073l0.224,-0.073l0.225,-0.074l0.224,-0.074l0.223,-0.076l0.224,-0.076l0.222,-0.077l0.223,-0.078l0.221,-0.079l0.222,-0.079l0.221,-0.08l0.22,-0.081l0.22,-0.082l0.22,-0.082l0.219,-0.083l0.218,-0.084l0.218,-0.084l0.218,-0.085l0.217,-0.086l0.216,-0.087l0.216,-0.087l0.215,-0.087l0.215,-0.089l0.215,-0.088l0.213,-0.09l0.214,-0.09l0.212,-0.091l0.212,-0.091l0.212,-0.092l0.421,-0.185l0.419,-0.188l0.417,-0.19l0.414,-0.191l0.412,-0.194l0.409,-0.195l0.406,-0.198l0.404,-0.199l0.401,-0.2l0.398,-0.202l0.396,-0.204l0.393,-0.205l0.39,-0.206l0.386,-0.208l0.384,-0.208l0.381,-0.21l0.378,-0.211l0.375,-0.211l0.371,-0.213l0.369,-0.213l0.365,-0.214l0.361,-0.215l0.359,-0.215l0.355,-0.216l0.351,-0.216l0.348,-0.216l0.344,-0.217l0.341,-0.216l0.337,-0.217l0.333,-0.217l0.33,-0.217l0.326,-0.216l0.322,-0.217l0.318,-0.216l0.314,-0.216l0.31,-0.215l0.306,-0.215l0.302,-0.214l0.298,-0.213l0.294,-0.213l0.289,-0.211l0.285,-0.211l0.281,-0.21l0.277,-0.209l0.272,-0.208l0.267,-0.206l0.263,-0.205l0.258,-0.204l0.254,-0.202l0.249,-0.201l0.245,-0.199l0.239,-0.197l0.235,-0.196l0.23,-0.194l0.225,-0.191l0.22,-0.19l0.215,-0.188l0.21,-0.186l0.205,-0.183l0.2,-0.181l0.195,-0.179l0.189,-0.176l0.184,-0.174l0.179,-0.171l0.173,-0.168l0.168,-0.166l0.162,-0.163l0.157,-0.16l0.151,-0.156l0.146,-0.154l0.14,-0.151l0.134,-0.147l0.128,-0.144l0.123,-0.141l0.117,-0.137l0.11,-0.134l0.105,-0.13l0.099,-0.126l0.093,-0.123l0.099,-0.183l0.1,-0.188l0.101,-0.191l0.102,-0.195l0.103,-0.199l0.104,-0.202l0.105,-0.206l0.106,-0.209l0.213,-0.428l0.218,-0.441l0.22,-0.453l0.224,-0.465l0.226,-0.477l0.229,-0.488l0.232,-0.499l0.234,-0.509l0.236,-0.518l0.239,-0.528l0.24,-0.536l0.243,-0.544l0.244,-0.552l0.246,-0.559l0.247,-0.566l0.249,-0.572l0.25,-0.578l0.25,-0.583l0.252,-0.589l0.253,-0.592l0.253,-0.596l0.254,-0.6l0.254,-0.603l0.254,-0.605l0.508,-1.215l0.507,-1.22l0.506,-1.22l0.502,-1.216l0.498,-1.208l0.492,-1.198l0.964,-2.345l0.469,-1.14l0.46,-1.114l0.448,-1.084l0.436,-1.049l0.422,-1.011l0.206,-0.49l0.203,-0.479l0.198,-0.467l0.194,-0.456l0.19,-0.444l0.186,-0.43l0.181,-0.417l0.177,-0.403l0.171,-0.389l0.167,-0.374l0.291,-0.188l0.287,-0.187l0.286,-0.189l0.282,-0.189l0.28,-0.191l0.277,-0.191l0.275,-0.191l0.273,-0.193l0.269,-0.193l0.268,-0.194l0.264,-0.195l0.262,-0.196l0.26,-0.196l0.257,-0.197l0.255,-0.198l0.252,-0.199l0.25,-0.199l0.247,-0.2l0.245,-0.201l0.242,-0.201l0.24,-0.202l0.237,-0.203l0.236,-0.204l0.232,-0.204l0.23,-0.205l0.228,-0.206l0.225,-0.206l0.223,-0.207l0.221,-0.208l0.218,-0.208l0.216,-0.209l0.213,-0.21l0.212,-0.21l0.208,-0.211l0.207,-0.212l0.204,-0.212l0.202,-0.213l0.199,-0.214l0.198,-0.214l0.194,-0.215l0.193,-0.215l0.19,-0.216l0.188,-0.217l0.186,-0.217l0.184,-0.218l0.181,-0.219l0.179,-0.219l0.177,-0.219l0.174,-0.221l0.173,-0.22l0.17,-0.222l0.168,-0.222l0.166,-0.222l0.163,-0.224l0.162,-0.223l0.159,-0.224l0.157,-0.225l0.155,-0.226l0.153,-0.225l0.15,-0.227l0.149,-0.227l0.146,-0.227l0.145,-0.228l0.142,-0.229l0.14,-0.229l0.138,-0.229l0.136,-0.23l0.134,-0.231l0.131,-0.231l0.13,-0.231l0.128,-0.232l0.125,-0.233l0.124,-0.233l0.122,-0.233l0.119,-0.234l0.118,-0.234l0.115,-0.235l0.114,-0.235l0.111,-0.236l0.11,-0.236l0.108,-0.237l0.105,-0.237l0.104,-0.237l0.102,-0.238l0.099,-0.238l0.098,-0.239l0.096,-0.239l0.094,-0.239l0.092,-0.24l0.091,-0.241l0.088,-0.24l0.086,-0.241l0.085,-0.242l0.083,-0.242l0.081,-0.242l0.079,-0.243l0.077,-0.243l0.075,-0.243l0.073,-0.244l0.072,-0.244l0.07,-0.244l0.068,-0.245l0.066,-0.245l0.065,-0.245l0.062,-0.246l0.061,-0.246l0.06,-0.246l0.057,-0.247l0.056,-0.247l0.054,-0.247l0.052,-0.248l0.05,-0.248l0.049,-0.248l0.047,-0.249l0.045,-0.248l0.044,-0.249l0.042,-0.25l0.04,-0.249l0.039,-0.25l0.037,-0.25l0.035,-0.251l0.034,-0.25l0.032,-0.251l0.03,-0.251l0.029,-0.252l0.027,-0.251l0.025,-0.252l0.024,-0.252l0.023,-0.252l0.021,-0.253l0.019,-0.253l0.017,-0.252l0.016,-0.254l0.015,-0.253l0.013,-0.253l0.011,-0.254l0.01,-0.254l0.009,-0.254l0.007,-0.254l0.005,-0.254l0.004,-0.255l0.002,-0.255l0.001,-0.255l0,-0.255l-0.002,-0.255l-0.004,-0.255l-0.005,-0.256l-0.006,-0.255l-0.008,-0.256l-0.009,-0.256l-0.011,-0.256l-0.012,-0.256l-0.013,-0.256l-0.015,-0.256l-0.016,-0.256l-0.018,-0.257l-0.018,-0.256l-0.021,-0.257l-0.021,-0.257l-0.023,-0.257l-0.025,-0.257l-0.025,-0.257l-0.027,-0.257l-0.029,-0.257l-0.029,-0.257l-0.031,-0.257l-0.032,-0.257l-0.034,-0.257l-0.034,-0.258l-0.036,-0.257l-0.038,-0.257l-0.038,-0.258l-0.04,-0.257l-0.041,-0.258l-0.042,-0.257l-0.043,-0.258l-0.045,-0.257l-0.046,-0.257l-0.047,-0.258l-0.048,-0.257l-0.049,-0.258l-0.051,-0.257l-0.052,-0.257l-0.053,-0.258l-0.054,-0.257l-0.055,-0.257l-0.056,-0.258l-0.057,-0.257l-0.059,-0.257l-0.059,-0.257l-0.061,-0.257l-0.062,-0.257l-0.063,-0.257l-0.064,-0.256l-0.065,-0.257l-0.066,-0.257l-0.067,-0.256l-0.068,-0.257l-0.069,-0.256l-0.071,-0.256l-0.071,-0.256l-0.072,-0.256l-0.073,-0.256l-0.075,-0.256l-0.075,-0.255l-0.076,-0.256l-0.077,-0.255l-0.078,-0.255l-0.079,-0.255l-0.08,-0.255l-0.081,-0.255l-0.082,-0.255l-0.083,-0.254l-0.084,-0.254l-0.085,-0.254l-0.085,-0.254l-0.087,-0.254l-0.087,-0.254l-0.088,-0.253l-0.089,-0.253l-0.09,-0.253l-0.091,-0.253l-0.092,-0.252l-0.092,-0.253l-0.093,-0.252l-0.095,-0.252l-0.094,-0.252l-0.096,-0.251l-0.097,-0.251l-0.097,-0.251l-0.098,-0.251l-0.099,-0.25l-0.1,-0.25l-0.1,-0.25l-0.101,-0.25l-0.102,-0.25l-0.103,-0.249l-0.103,-0.249l-0.104,-0.248l-0.105,-0.248l-0.105,-0.248l-0.106,-0.248l-0.215,-0.495l-0.217,-0.493l-0.22,-0.492l-0.222,-0.491l-0.224,-0.489l-0.228,-0.488l-0.229,-0.486l-0.232,-0.485l-0.234,-0.484l-0.236,-0.482l-0.238,-0.481l-0.241,-0.479l-0.242,-0.477l-0.244,-0.475l-0.246,-0.474l-0.248,-0.472l-0.249,-0.471l-0.252,-0.468l-0.253,-0.467l-0.254,-0.464l-0.256,-0.463l-0.257,-0.461l-0.259,-0.459l-0.259,-0.457l-0.262,-0.455l-0.262,-0.452l-0.263,-0.451l-0.264,-0.448l-0.266,-0.446l-0.266,-0.444l-0.267,-0.441l-0.268,-0.439l-0.268,-0.437l-0.269,-0.435l-0.27,-0.431l-0.271,-0.43l-0.27,-0.427l-0.271,-0.424l-0.272,-0.422l-0.272,-0.419l-0.271,-0.417l-0.272,-0.414l-0.273,-0.411l-0.272,-0.408l-0.272,-0.405l-0.272,-0.403l-0.272,-0.4l-0.271,-0.397l-0.271,-0.394l-0.271,-0.391l-0.271,-0.388l-0.27,-0.384l-0.269,-0.382l-0.269,-0.379l-0.268,-0.375l-0.267,-0.372l-0.266,-0.369l-0.266,-0.366l-0.265,-0.362l-0.263,-0.359l-0.263,-0.356l-0.261,-0.352l-0.261,-0.349l-0.259,-0.345l-0.257,-0.342l-0.257,-0.338l-0.255,-0.334l-0.253,-0.331l-0.252,-0.327l-0.25,-0.324l-0.248,-0.32l-0.247,-0.315l-0.245,-0.313l-0.243,-0.308l-0.241,-0.304l-0.238,-0.3l-0.237,-0.297l-0.235,-0.292l-0.233,-0.289l-0.23,-0.284l-0.228,-0.28l-0.225,-0.276l-0.223,-0.272l-0.439,-0.53l-0.427,-0.514l-0.417,-0.496l-0.405,-0.478l-0.393,-0.461l-0.38,-0.441l-0.367,-0.423l-0.353,-0.405l-0.34,-0.385l-0.324,-0.365l-0.309,-0.345l-0.294,-0.326l-0.277,-0.305l-0.261,-0.284l-0.243,-0.263l-0.226,-0.242l-0.208,-0.22l-0.188,-0.199l-0.17,-0.176l-0.15,-0.154l-0.129,-0.131l-0.109,-0.108l-0.087,-0.084l-0.066,-0.061l-0.024,-0.022l-0.019,-0.015l-0.013,-0.009l-0.004,-0.003l-0.003,-0.001l-0.585,-0.039l-0.611,-0.043l-0.315,-0.023l-0.322,-0.025l-0.329,-0.025l-0.334,-0.028l-0.341,-0.028l-0.347,-0.03l-0.353,-0.031l-0.359,-0.033l-0.365,-0.034l-0.371,-0.036l-0.376,-0.037l-0.382,-0.039l-0.388,-0.04l-0.393,-0.043l-0.398,-0.043l-0.404,-0.046l-0.409,-0.047l-0.414,-0.049l-0.419,-0.051l-0.424,-0.053l-0.429,-0.055l-0.434,-0.057l-0.438,-0.058l-0.444,-0.061l-0.447,-0.063l-0.452,-0.065l-0.457,-0.067l-0.461,-0.069l-0.465,-0.071l-0.469,-0.074l-0.473,-0.075l-0.478,-0.078l-0.481,-0.081l-0.485,-0.083l-0.488,-0.085l-0.493,-0.088l-0.495,-0.09l-0.5,-0.093l-0.502,-0.095l-0.506,-0.098l-0.51,-0.1l-0.512,-0.103l-0.515,-0.106l-0.519,-0.109l-0.521,-0.111l-0.524,-0.114l-0.527,-0.117l-0.529,-0.12l-0.532,-0.123l-0.535,-0.126l-0.536,-0.128l-0.539,-0.132l-0.542,-0.135l-0.543,-0.138l-0.546,-0.141l-0.547,-0.144l-0.55,-0.147l-0.551,-0.151l-0.553,-0.154l-0.554,-0.157l-0.556,-0.161l-0.558,-0.164l-0.559,-0.167l-0.56,-0.171l-0.281,-0.086l-0.281,-0.088l-0.281,-0.088l-0.281,-0.09l-0.282,-0.09l-0.282,-0.091l-0.282,-0.092l-0.283,-0.093l-0.282,-0.094l-0.283,-0.095l-0.283,-0.095l-0.283,-0.097l-0.284,-0.098l-0.283,-0.098l-0.284,-0.099l-0.284,-0.101l-0.284,-0.101l-0.284,-0.102l-0.285,-0.103l-0.284,-0.104l-0.285,-0.106l-0.284,-0.106l-0.285,-0.107l-0.285,-0.108l-0.284,-0.109l-0.285,-0.11l-0.285,-0.11l-0.285,-0.112l-0.285,-0.113l-0.285,-0.114l-0.285,-0.115l-0.284,-0.116l-0.285,-0.117l-0.285,-0.118l-0.285,-0.119l-0.285,-0.12l-0.284,-0.121l-0.285,-0.122l-0.284,-0.124l-0.285,-0.124l-0.284,-0.125l-0.284,-0.126l-0.284,-0.128l-0.284,-0.128l-0.284,-0.13l-0.283,-0.13l-0.283,-0.132l-0.284,-0.133l-0.283,-0.134l-0.282,-0.134l-0.283,-0.136l-0.282,-0.138l-0.282,-0.138l-0.282,-0.139l-0.282,-0.141l-0.281,-0.141l-0.281,-0.143l-0.281,-0.144l-0.28,-0.145l-0.281,-0.146l-0.279,-0.147l-0.28,-0.148l-0.279,-0.15l-0.279,-0.151l-0.278,-0.151l-0.278,-0.153l-0.278,-0.154l-0.277,-0.156l-0.277,-0.156l-0.277,-0.158l-0.276,-0.159l-0.275,-0.16l-0.276,-0.161l-0.274,-0.163l-0.275,-0.163l-0.273,-0.165l-0.274,-0.166l-0.272,-0.168l-0.273,-0.168l-0.271,-0.17l-0.272,-0.171l-0.27,-0.172l-0.271,-0.174l-0.269,-0.174l-0.269,-0.176l-0.269,-0.177l-0.268,-0.179l-0.267,-0.18l-0.266,-0.181l-0.266,-0.182l-0.266,-0.183l-0.265,-0.185l-0.264,-0.186l-0.263,-0.188l-0.263,-0.188l-0.262,-0.19l-0.261,-0.192l-0.261,-0.192l-0.26,-0.194l-0.259,-0.195l-0.259,-0.197l-0.257,-0.198l-0.257,-0.199l-0.257,-0.201l-0.255,-0.201l-0.255,-0.204l-0.254,-0.204l-0.253,-0.206l-0.252,-0.207l-0.251,-0.209l-0.251,-0.21l-0.25,-0.211l-0.248,-0.213l-0.248,-0.214l-0.248,-0.216l-0.246,-0.217l-0.245,-0.218l-0.244,-0.219l-0.244,-0.222l-0.242,-0.222l-0.203,-0.185l-0.201,-0.183l-0.202,-0.181l-0.201,-0.177l-0.2,-0.176l-0.2,-0.172l-0.2,-0.171l-0.199,-0.167l-0.199,-0.165l-0.198,-0.163l-0.198,-0.159l-0.198,-0.157l-0.197,-0.155l-0.197,-0.152l-0.197,-0.149l-0.196,-0.147l-0.196,-0.144l-0.196,-0.141l-0.195,-0.138l-0.195,-0.136l-0.195,-0.133l-0.194,-0.131l-0.195,-0.128l-0.193,-0.125l-0.194,-0.122l-0.193,-0.119l-0.193,-0.117l-0.193,-0.114l-0.193,-0.111l-0.192,-0.109l-0.193,-0.105l-0.192,-0.103l-0.191,-0.1l-0.192,-0.097l-0.191,-0.095l-0.192,-0.091l-0.191,-0.089l-0.191,-0.086l-0.19,-0.083l-0.191,-0.08l-0.191,-0.077l-0.19,-0.074l-0.19,-0.071l-0.19,-0.069l-0.19,-0.065l-0.19,-0.063l-0.19,-0.059l-0.19,-0.057l-0.19,-0.054l-0.189,-0.05l-0.19,-0.048l-0.19,-0.045l-0.189,-0.041l-0.19,-0.039l-0.189,-0.036l-0.19,-0.032l-0.094,-0.016l-0.095,-0.014l-0.095,-0.014l-0.095,-0.013l-0.094,-0.012l-0.095,-0.011l-0.095,-0.011l-0.095,-0.009l-0.094,-0.01l-0.095,-0.008l-0.095,-0.007l-0.095,-0.007l-0.095,-0.006l-0.095,-0.005l-0.094,-0.005l-0.095,-0.003l-0.095,-0.003l-0.095,-0.002l-0.095,-0.001l-0.095,-0.001l-0.095,0Zm-75.43,31.432l0.004,0.007l0,-0.021l-0.004,0.014Zm0.975,-3.017l-0.282,0.413l-0.162,0.331l-0.007,0.03l0.184,-0.367l0.311,-0.466l-0.044,0.059Z"/><path d="M114.332,402.423c0,0 39.056,5.273 42.4,37.266" style="fill:none;stroke:#000;stroke-width:5.24px;"/><path d="M238.206,403.994c0,0 -39.056,5.272 -42.399,37.265" style="fill:none;stroke:#000;stroke-width:5.24px;"/></g><g id="brille"><path d="M161.21,223.72c8.931,-6.212 18.07,-6.613 27.459,0" style="fill:none;stroke:#000;stroke-width:5.24px;"/><path d="M160.665,215.212c0,-13.253 -10.76,-24.012 -24.013,-24.012l-94.807,0c-13.253,0 -24.013,10.759 -24.013,24.012l0,48.026c0,13.253 10.76,24.012 24.013,24.012l94.807,0c13.253,0 24.013,-10.759 24.013,-24.012l0,-48.026Z" style="fill:#fff;stroke:#000;stroke-width:5.24px;"/><path d="M332.168,215.212c0,-13.253 -10.76,-24.012 -24.013,-24.012l-94.807,0c-13.253,0 -24.013,10.759 -24.013,24.012l0,48.026c0,13.253 10.76,24.012 24.013,24.012l94.807,0c13.253,0 24.013,-10.759 24.013,-24.012l0,-48.026Z" style="fill:#fff;stroke:#000;stroke-width:5.24px;"/><circle cx="128.846" cy="247.356" r="8.12" style="stroke:#000;stroke-width:5.78px;"/><circle cx="223.954" cy="247.356" r="8.12" style="stroke:#000;stroke-width:5.78px;"/></g></g></svg>